HIERARCHY
ROOT Pelvis
{
	OFFSET 0.000000 0.000000 0.000000
	CHANNELS 6 Xposition Yposition Zposition Xrotation Yrotation Zrotation
	JOINT LeftUpLeg_virtual
	{
		OFFSET 0.000000 0.000000 0.000000
		CHANNELS 3 Xrotation Yrotation Zrotation
		JOINT LeftUpLeg
		{
			OFFSET 18.735201 -5.666702 -4.541200
			CHANNELS 3 Xrotation Yrotation Zrotation
			JOINT LeftLeg
			{
				OFFSET -0.021200 -31.938179 0.493100
				CHANNELS 3 Xrotation Yrotation Zrotation
				JOINT LeftFoot
				{
					OFFSET 0.021200 -31.938179 -4.336299
					CHANNELS 3 Xrotation Yrotation Zrotation
					JOINT LeftToeBase
					{
						OFFSET 0.943001 -26.722000 15.023500
						CHANNELS 3 Xrotation Yrotation Zrotation
						End Site
						{
							OFFSET 0 0 0
						}
					}
				}
			}
		}
	}
	JOINT RightUpLeg_virtual
	{
		OFFSET 0.000000 0.000000 0.000000
		CHANNELS 3 Xrotation Yrotation Zrotation
		JOINT RightUpLeg
		{
			OFFSET -18.735201 -5.666702 -4.541200
			CHANNELS 3 Xrotation Yrotation Zrotation
			JOINT RightLeg
			{
				OFFSET 0.018946 -31.938133 0.493100
				CHANNELS 3 Xrotation Yrotation Zrotation
				JOINT RightFoot
				{
					OFFSET -0.018946 -31.938126 -4.336299
					CHANNELS 3 Xrotation Yrotation Zrotation
					JOINT RightToeBase
					{
						OFFSET -0.943001 -26.722004 15.023500
						CHANNELS 3 Xrotation Yrotation Zrotation
						End Site
						{
							OFFSET 0 0 0
						}
					}
				}
			}
		}
	}
	JOINT Hips_virtual
	{
		OFFSET 0.000000 0.000000 0.000000
		CHANNELS 3 Xrotation Yrotation Zrotation
		JOINT Hips
		{
			OFFSET -0.000000 -0.000000 -0.000000
			CHANNELS 3 Xrotation Yrotation Zrotation
			JOINT Spine
			{
				OFFSET 0.000000 10.199997 -0.299500
				CHANNELS 3 Xrotation Yrotation Zrotation
				JOINT Spine1
				{
					OFFSET 0.000000 11.900002 -1.516600
					CHANNELS 3 Xrotation Yrotation Zrotation
					JOINT Spine2
					{
						OFFSET 0.000000 13.600006 -2.842500
						CHANNELS 3 Xrotation Yrotation Zrotation
						JOINT Neck_virtual
						{
							OFFSET 0.000000 0.000000 0.000000
							CHANNELS 3 Xrotation Yrotation Zrotation
							JOINT Neck
							{
								OFFSET 0.000000 9.624100 -2.890100
								CHANNELS 3 Xrotation Yrotation Zrotation
								JOINT Head
								{
									OFFSET 0.000000 14.068802 -1.351900
									CHANNELS 3 Xrotation Yrotation Zrotation
									End Site
									{
										OFFSET 0 0 0
									}
								}
							}
						}
						JOINT LeftShoulder_virtual
						{
							OFFSET 0.000000 0.000000 0.000000
							CHANNELS 3 Xrotation Yrotation Zrotation
							JOINT LeftShoulder
							{
								OFFSET 15.263000 10.923401 -0.547700
								CHANNELS 3 Xrotation Yrotation Zrotation
								JOINT LeftArm
								{
									OFFSET 25.438599 -2.830597 -13.032500
									CHANNELS 3 Xrotation Yrotation Zrotation
									JOINT LeftForeArm
									{
										OFFSET 29.960503 0.000000 0.000000
										CHANNELS 3 Xrotation Yrotation Zrotation
										JOINT LeftHand
										{
											OFFSET 27.849251 0.000000 0.000000
											CHANNELS 3 Xrotation Yrotation Zrotation
											End Site
											{
												OFFSET 0 0 0
											}
										}
									}
								}
							}
						}
						JOINT RightShoulder_virtual
						{
							OFFSET 0.000000 0.000000 0.000000
							CHANNELS 3 Xrotation Yrotation Zrotation
							JOINT RightShoulder
							{
								OFFSET -15.263000 10.923401 -0.547700
								CHANNELS 3 Xrotation Yrotation Zrotation
								JOINT RightArm
								{
									OFFSET -25.438599 -2.830597 -13.032500
									CHANNELS 3 Xrotation Yrotation Zrotation
									JOINT RightForeArm
									{
										OFFSET -29.960503 0.000000 0.000000
										CHANNELS 3 Xrotation Yrotation Zrotation
										JOINT RightHand
										{
											OFFSET -27.849251 0.000000 0.000000
											CHANNELS 3 Xrotation Yrotation Zrotation
											End Site
											{
												OFFSET 0 0 0
											}
										}
									}
								}
							}
						}
					}
				}
			}
		}
	}
}
MOTION
Frames: 7
Frame Time: 0.03333333
-0.099015 92.012772 1.741422 0.000000 0.000000 0.000000 10.915061 -11.306372 -0.835588 -26.261611 9.330130 14.012997 34.453093 1.887247 -1.642026 -13.951463 2.761939 -6.487966 0.000000 0.000000 0.000000 6.329566 9.777622 3.156331 -20.650372 -3.053177 -10.080762 32.894136 0.109607 -3.112432 -16.522535 -2.218810 6.092071 0.000000 0.000000 0.000000 -0.101504 -1.605062 0.058194 2.343421 6.073476 -2.015808 3.566016 -0.410743 0.196621 0.111042 0.193572 0.335360 0.000000 0.000000 0.000000 0.813195 0.213092 0.122960 -1.473934 -0.213126 0.028922 0.000000 0.000000 0.000000 1.023386 -0.430834 -0.635840 0.036485 -9.786337 -9.570748 8.386943 -4.924603 -58.122485 6.411674 -33.900596 -4.698291 0.000000 0.000000 0.000000 1.751756 0.126319 1.046570 0.142588 7.066148 11.101528 5.654032 9.401463 52.986681 5.590027 41.393323 3.144939 0.000000 0.000000 0.000000 
-0.053388 92.022530 1.718085 0.000000 0.000000 0.000000 10.968896 -11.418639 -0.836325 -26.175107 9.315186 13.983439 34.353550 1.935898 -1.654673 -14.036473 2.820781 -6.484936 0.000000 0.000000 0.000000 6.362790 9.982916 3.163610 -20.582372 -3.004147 -10.040154 32.864268 0.100640 -3.130353 -16.564501 -2.219887 6.049861 0.000000 0.000000 0.000000 -0.071545 -1.608851 0.067770 2.416477 6.211450 -1.954432 3.594802 -0.459168 0.153328 0.113886 0.191253 0.334844 0.000000 0.000000 0.000000 0.850304 0.210186 0.125092 -1.457476 -0.219282 0.023879 0.000000 0.000000 0.000000 1.028086 -0.443907 -0.623918 0.061927 -9.857621 -9.579419 8.499090 -4.866392 -58.133161 6.461490 -33.822028 -4.699771 0.000000 0.000000 0.000000 1.748451 0.143992 1.048740 0.166174 7.046702 11.169925 5.599827 9.319412 53.158952 5.545725 41.307536 3.222017 0.000000 0.000000 0.000000 
0.033914 92.039665 1.667862 0.000000 0.000000 0.000000 11.065714 -11.622150 -0.836473 -26.020693 9.287292 13.931680 34.185452 2.028772 -1.677382 -14.180878 2.931626 -6.476503 0.000000 0.000000 0.000000 6.428020 10.365329 3.172427 -20.452469 -2.912321 -9.969207 32.808622 0.089493 -3.159917 -16.641763 -2.218234 5.981288 0.000000 0.000000 0.000000 -0.015536 -1.619982 0.088890 2.542396 6.478423 -1.844606 3.648111 -0.541558 0.074497 0.123390 0.186362 0.331909 0.000000 0.000000 0.000000 0.923603 0.206042 0.129523 -1.425467 -0.231266 0.014545 0.000000 0.000000 0.000000 1.038374 -0.467965 -0.603508 0.105526 -9.992597 -9.596846 8.688416 -4.750898 -58.149874 6.537086 -33.702438 -4.707673 0.000000 0.000000 0.000000 1.747829 0.175754 1.053154 0.211624 6.998921 11.294564 5.510686 9.167117 53.484455 5.467982 41.136754 3.369249 0.000000 0.000000 0.000000 
0.155175 92.060211 1.586566 0.000000 0.000000 0.000000 11.187263 -11.881520 -0.834194 -25.829317 9.249984 13.869603 33.997700 2.157886 -1.706185 -14.344362 3.082802 -6.459551 0.000000 0.000000 0.000000 6.521694 10.874284 3.173156 -20.273070 -2.788856 -9.885656 32.736233 0.086445 -3.191929 -16.741050 -2.207678 5.909889 0.000000 0.000000 0.000000 0.061182 -1.640964 0.124714 2.692189 6.856091 -1.708967 3.720932 -0.634732 -0.026293 0.144666 0.178492 0.324514 0.000000 0.000000 0.000000 1.030980 0.203152 0.136522 -1.379825 -0.248500 0.002282 0.000000 0.000000 0.000000 1.055744 -0.499244 -0.579969 0.156110 -10.177361 -9.624203 8.897823 -4.577116 -58.163398 6.599912 -33.596693 -4.728158 0.000000 0.000000 0.000000 1.759909 0.215828 1.059923 0.276352 6.910319 11.456269 5.417386 8.966341 53.929343 5.373853 40.886294 3.573576 0.000000 0.000000 0.000000 
0.299753 92.079720 1.473533 0.000000 0.000000 0.000000 11.313543 -12.158538 -0.828239 -25.634188 9.207361 13.809140 33.838089 2.313188 -1.737333 -14.487649 3.260832 -6.432256 0.000000 0.000000 0.000000 6.637205 11.448062 3.155430 -20.061486 -2.647361 -9.809734 32.661213 0.100528 -3.218779 -16.843651 -2.181975 5.855773 0.000000 0.000000 0.000000 0.154911 -1.667537 0.178248 2.843571 7.316484 -1.573974 3.811946 -0.715458 -0.133052 0.180898 0.167308 0.312612 0.000000 0.000000 0.000000 1.168680 0.203638 0.146382 -1.323565 -0.270183 -0.011170 0.000000 0.000000 0.000000 1.082199 -0.533003 -0.558419 0.203434 -10.393075 -9.664917 9.067024 -4.340276 -58.160857 6.610920 -33.549541 -4.764005 0.000000 0.000000 0.000000 1.795472 0.258191 1.069222 0.357907 6.772427 11.636049 5.349734 8.744524 54.451528 5.279559 40.571402 3.817357 0.000000 0.000000 0.000000 
0.455955 92.094116 1.334809 0.000000 0.000000 0.000000 11.428622 -12.424766 -0.818743 -25.460775 9.162716 13.757878 33.737754 2.484285 -1.768392 -14.585128 3.453205 -6.395206 0.000000 0.000000 0.000000 6.765968 12.028104 3.111483 -19.836051 -2.500854 -9.758529 32.600527 0.135725 -3.237443 -16.928697 -2.137199 5.827862 0.000000 0.000000 0.000000 0.264517 -1.685991 0.250703 2.990707 7.822676 -1.462729 3.925299 -0.767907 -0.231398 0.231478 0.152813 0.298992 0.000000 0.000000 0.000000 1.330768 0.208396 0.159249 -1.260686 -0.295157 -0.024006 0.000000 0.000000 0.000000 1.120491 -0.564360 -0.542085 0.241843 -10.617259 -9.724732 9.147946 -4.035268 -58.128584 6.542739 -33.578016 -4.812231 0.000000 0.000000 0.000000 1.862466 0.298070 1.081373 0.454432 6.586614 11.820659 5.324436 8.528444 55.006973 5.194505 40.219999 4.080419 0.000000 0.000000 0.000000 
0.613202 92.099930 1.183609 0.000000 0.000000 0.000000 11.524873 -12.670183 -0.807337 -25.320252 9.117497 13.716620 33.705993 2.661984 -1.798571 -14.628845 3.650128 -6.351279 0.000000 0.000000 0.000000 6.899742 12.571578 3.038566 -19.611300 -2.359125 -9.741559 32.569217 0.189600 -3.249546 -16.978204 -2.073473 5.822821 0.000000 0.000000 0.000000 0.389018 -1.677340 0.340033 3.143105 8.332990 -1.389089 4.068330 -0.786915 -0.311884 0.292507 0.135361 0.288180 0.000000 0.000000 0.000000 1.509031 0.216926 0.174890 -1.195666 -0.321746 -0.034650 0.000000 0.000000 0.000000 1.174272 -0.589130 -0.531865 0.271249 -10.826030 -9.810041 9.111645 -3.664869 -58.057011 6.385595 -33.672443 -4.865105 0.000000 0.000000 0.000000 1.963453 0.332513 1.096757 0.564318 6.365245 12.003963 5.338157 8.337768 55.553931 5.118934 39.870031 4.342288 0.000000 0.000000 0.000000 
